<svg xmlns="http://www.w3.org/2000/svg"  viewBox="0 0 48 48" width="48px" height="48px" baseProfile="basic"><path d="M44,24H4c0,0.338,0,1.662,0,2c0,11.028,8.972,20,20,20s20-8.972,20-20C44,25.662,44,24.338,44,24z"/><circle cx="24" cy="24" r="19" fill="#fff"/><path d="M12.3,31.7c0.5,0.1,1.4,0.2,2.1,1.1c0.7,0.9,1.5,2,2.8,2c1.3,0,4.7,0,5.5-0.9l-2.6,3c0,0-2.3,0-2.8,0	c-1.2,0-2.3-0.5-2.8-1.5c-0.6-1.1-1.1-2.3-2.6-3.3C11.6,31.9,11.8,31.7,12.3,31.7 M12.3,29.7c-1.449,0-2.216,0.828-2.45,1.603	c-0.281,0.927,0.089,1.893,0.941,2.461c0.896,0.597,1.262,1.29,1.725,2.166c0.071,0.134,0.142,0.268,0.214,0.4	c0.823,1.61,2.528,2.57,4.571,2.57h2.8c0.58,0,1.132-0.252,1.511-0.69l2.6-3c0.72-0.831,0.634-2.088-0.192-2.813	c-0.38-0.333-0.85-0.497-1.319-0.497c-0.492,0-0.981,0.18-1.361,0.534C21.046,32.562,20.11,32.8,17.2,32.8	c-0.269,0-0.812-0.701-1.137-1.119l-0.084-0.109c-1.108-1.424-2.559-1.696-3.179-1.813l-0.108-0.021	C12.563,29.713,12.432,29.7,12.3,29.7L12.3,29.7z"/><path d="M24,44C12.972,44,4,35.028,4,24S12.972,4,24,4s20,8.972,20,20S35.028,44,24,44z M24,6C14.075,6,6,14.075,6,24	s8.075,18,18,18s18-8.075,18-18S33.925,6,24,6z"/><path fill="#fff" d="M29,40H19v-4c0-2.761,2.239-5,5-5h0c2.761,0,5,2.239,5,5V40z"/><path d="M29,44H19c-0.553,0-1-0.448-1-1v-7c0-3.309,2.691-6,6-6s6,2.691,6,6v7C30,43.552,29.553,44,29,44z M20,42h8v-6	c0-2.206-1.794-4-4-4s-4,1.794-4,4V42z"/><path d="M6.25,27.875c-0.414,0-0.802-0.26-0.945-0.673c-0.181-0.522,0.097-1.091,0.618-1.272c3.397-1.175,7.939-0.939,8.133-0.929	c0.551,0.031,0.973,0.502,0.942,1.054s-0.514,0.974-1.053,0.943c-0.046-0.002-4.35-0.224-7.368,0.821	C6.469,27.857,6.358,27.875,6.25,27.875z"/><path d="M13.999,24c-0.104,0-0.21-0.017-0.313-0.051C13.656,23.94,10.751,23,6,23c-0.553,0-1-0.448-1-1s0.447-1,1-1	c5.104,0,8.188,1.008,8.316,1.051c0.523,0.174,0.806,0.739,0.632,1.263C14.81,23.734,14.418,24,13.999,24z"/><path d="M41.75,27.875c-0.108,0-0.219-0.018-0.327-0.056c-3.026-1.048-7.325-0.825-7.367-0.821	c-0.583,0.033-1.023-0.392-1.054-0.943c-0.031-0.552,0.392-1.023,0.942-1.054c0.193-0.01,4.735-0.248,8.133,0.929	c0.521,0.181,0.799,0.75,0.618,1.272C42.552,27.616,42.164,27.875,41.75,27.875z"/><path d="M34.001,24c-0.419,0-0.811-0.266-0.949-0.686c-0.174-0.524,0.108-1.089,0.632-1.263C33.813,22.008,36.896,21,42,21	c0.553,0,1,0.448,1,1s-0.447,1-1,1c-4.751,0-7.656,0.94-7.686,0.949C34.211,23.983,34.105,24,34.001,24z"/><path fill="#fff" d="M33.014,19.473c0.412-1.294,0.981-4.378-0.114-5.473c-2.265,0-3.773,1.223-4.426,1.884	C27.12,15.327,25.607,15,24,15c-1.602,0-3.111,0.333-4.461,0.896C18.892,15.237,17.378,14,15.1,14	c-1.103,1.103-0.517,4.228-0.104,5.504c-0.823,1.22-1.296,2.592-1.296,3.996C13.7,27.9,17,31,24,31s10.3-3,10.3-7.5	C34.3,22.069,33.832,20.69,33.014,19.473z"/><path d="M24,32c-7.075,0-11.3-3.178-11.3-8.5c0-1.414,0.418-2.842,1.212-4.156c-0.321-1.231-1.009-4.561,0.48-6.051	C14.58,13.105,14.834,13,15.1,13c2.163,0,3.729,0.947,4.66,1.738c2.737-0.982,5.767-0.975,8.492-0.009	C29.181,13.942,30.745,13,32.9,13c0.266,0,0.52,0.105,0.707,0.293c1.497,1.498,0.813,4.799,0.49,6.022	c0.788,1.313,1.202,2.75,1.202,4.185C35.3,28.902,31.182,32,24,32z M15.619,15.026c-0.316,0.856-0.124,2.773,0.328,4.17	c0.095,0.292,0.05,0.613-0.122,0.868c-0.736,1.09-1.125,2.278-1.125,3.437c0,4.191,3.303,6.5,9.3,6.5s9.3-2.309,9.3-6.5	c0-1.183-0.386-2.383-1.116-3.47c-0.17-0.253-0.216-0.57-0.123-0.861c0.443-1.391,0.63-3.293,0.319-4.143	c-1.584,0.161-2.665,1.024-3.195,1.561c-0.285,0.289-0.718,0.376-1.092,0.222c-2.597-1.07-5.554-1.08-8.169,0.01	c-0.375,0.157-0.812,0.07-1.098-0.222C18.296,16.057,17.21,15.187,15.619,15.026z"/></svg>